{
    "asset" : {
        "generator" : "Khronos glTF Blender I/O v1.7.33",
        "version" : "2.0"
    },
    "scene" : 0,
    "scenes" : [
        {
            "name" : "Scene",
            "nodes" : [
                0
            ]
        }
    ],
    "nodes" : [
        {
            "mesh" : 0,
            "name" : "AK"
        }
    ],
    "materials" : [
        {
            "doubleSided" : true,
            "name" : "Grey",
            "pbrMetallicRoughness" : {
                "baseColorFactor" : [
                    0.2746773064136505,
                    0.28744083642959595,
                    0.35153263807296753,
                    1
                ],
                "metallicFactor" : 0,
                "roughnessFactor" : 0.5
            }
        },
        {
            "doubleSided" : true,
            "name" : "Grey2",
            "pbrMetallicRoughness" : {
                "baseColorFactor" : [
                    0.14239658415317535,
                    0.14239658415317535,
                    0.14239658415317535,
                    1
                ],
                "metallicFactor" : 0,
                "roughnessFactor" : 0.5
            }
        },
        {
            "doubleSided" : true,
            "name" : "Wood",
            "pbrMetallicRoughness" : {
                "baseColorFactor" : [
                    0.3757452964782715,
                    0.20292167365550995,
                    0.0587104856967926,
                    1
                ],
                "metallicFactor" : 0,
                "roughnessFactor" : 0.5
            }
        },
        {
            "doubleSided" : true,
            "name" : "DarkGrey",
            "pbrMetallicRoughness" : {
                "baseColorFactor" : [
                    0.0666259378194809,
                    0.0666259378194809,
                    0.0666259378194809,
                    1
                ],
                "metallicFactor" : 0,
                "roughnessFactor" : 0.5
            }
        }
    ],
    "meshes" : [
        {
            "name" : "Cube.276",
            "primitives" : [
                {
                    "attributes" : {
                        "POSITION" : 0,
                        "NORMAL" : 1
                    },
                    "indices" : 2,
                    "material" : 0
                },
                {
                    "attributes" : {
                        "POSITION" : 3,
                        "NORMAL" : 4
                    },
                    "indices" : 5,
                    "material" : 1
                },
                {
                    "attributes" : {
                        "POSITION" : 6,
                        "NORMAL" : 7
                    },
                    "indices" : 8,
                    "material" : 2
                },
                {
                    "attributes" : {
                        "POSITION" : 9,
                        "NORMAL" : 10
                    },
                    "indices" : 11,
                    "material" : 3
                }
            ]
        }
    ],
    "accessors" : [
        {
            "bufferView" : 0,
            "componentType" : 5126,
            "count" : 920,
            "max" : [
                0.11728905141353607,
                0.331326961517334,
                0.05968960002064705
            ],
            "min" : [
                -0.5508214235305786,
                -0.29145345091819763,
                -0.0625360757112503
            ],
            "type" : "VEC3"
        },
        {
            "bufferView" : 1,
            "componentType" : 5126,
            "count" : 920,
            "type" : "VEC3"
        },
        {
            "bufferView" : 2,
            "componentType" : 5123,
            "count" : 1344,
            "type" : "SCALAR"
        },
        {
            "bufferView" : 3,
            "componentType" : 5126,
            "count" : 818,
            "max" : [
                0.08775273710489273,
                0.3407347798347473,
                0.07528993487358093
            ],
            "min" : [
                -0.6450659036636353,
                -0.317776083946228,
                -0.07838104665279388
            ],
            "type" : "VEC3"
        },
        {
            "bufferView" : 4,
            "componentType" : 5126,
            "count" : 818,
            "type" : "VEC3"
        },
        {
            "bufferView" : 5,
            "componentType" : 5123,
            "count" : 1212,
            "type" : "SCALAR"
        },
        {
            "bufferView" : 6,
            "componentType" : 5126,
            "count" : 96,
            "max" : [
                0.3949207067489624,
                0.28424373269081116,
                0.029474670067429543
            ],
            "min" : [
                0.027429401874542236,
                0.061341822147369385,
                -0.03284616395831108
            ],
            "type" : "VEC3"
        },
        {
            "bufferView" : 7,
            "componentType" : 5126,
            "count" : 96,
            "type" : "VEC3"
        },
        {
            "bufferView" : 8,
            "componentType" : 5123,
            "count" : 132,
            "type" : "SCALAR"
        },
        {
            "bufferView" : 9,
            "componentType" : 5126,
            "count" : 184,
            "max" : [
                -0.4895281493663788,
                0.41256576776504517,
                0.049983248114585876
            ],
            "min" : [
                -1.0273916721343994,
                0.20230884850025177,
                -0.054030828177928925
            ],
            "type" : "VEC3"
        },
        {
            "bufferView" : 10,
            "componentType" : 5126,
            "count" : 184,
            "type" : "VEC3"
        },
        {
            "bufferView" : 11,
            "componentType" : 5123,
            "count" : 696,
            "type" : "SCALAR"
        }
    ],
    "bufferViews" : [
        {
            "buffer" : 0,
            "byteLength" : 11040,
            "byteOffset" : 0
        },
        {
            "buffer" : 0,
            "byteLength" : 11040,
            "byteOffset" : 11040
        },
        {
            "buffer" : 0,
            "byteLength" : 2688,
            "byteOffset" : 22080
        },
        {
            "buffer" : 0,
            "byteLength" : 9816,
            "byteOffset" : 24768
        },
        {
            "buffer" : 0,
            "byteLength" : 9816,
            "byteOffset" : 34584
        },
        {
            "buffer" : 0,
            "byteLength" : 2424,
            "byteOffset" : 44400
        },
        {
            "buffer" : 0,
            "byteLength" : 1152,
            "byteOffset" : 46824
        },
        {
            "buffer" : 0,
            "byteLength" : 1152,
            "byteOffset" : 47976
        },
        {
            "buffer" : 0,
            "byteLength" : 264,
            "byteOffset" : 49128
        },
        {
            "buffer" : 0,
            "byteLength" : 2208,
            "byteOffset" : 49392
        },
        {
            "buffer" : 0,
            "byteLength" : 2208,
            "byteOffset" : 51600
        },
        {
            "buffer" : 0,
            "byteLength" : 1392,
            "byteOffset" : 53808
        }
    ],
    "buffers" : [
        {
            "byteLength" : 55200,
            "uri" : "data:application/octet-stream;base64,"
        }
    ]
}
