{
    "asset" : {
        "generator" : "Khronos glTF Blender I/O v1.7.33",
        "version" : "2.0"
    },
    "scene" : 0,
    "scenes" : [
        {
            "name" : "Scene",
            "nodes" : [
                0
            ]
        }
    ],
    "nodes" : [
        {
            "mesh" : 0,
            "name" : "Container_Long",
            "scale" : [
                0.5860000252723694,
                0.5860000252723694,
                0.5860000252723694
            ]
        }
    ],
    "materials" : [
        {
            "doubleSided" : true,
            "name" : "Red",
            "pbrMetallicRoughness" : {
                "baseColorFactor" : [
                    0.3263714909553528,
                    0.047813333570957184,
                    0.044884875416755676,
                    1
                ],
                "metallicFactor" : 0,
                "roughnessFactor" : 0.5
            }
        },
        {
            "doubleSided" : true,
            "name" : "Grey",
            "pbrMetallicRoughness" : {
                "baseColorFactor" : [
                    0.2746773064136505,
                    0.28744083642959595,
                    0.35153263807296753,
                    1
                ],
                "metallicFactor" : 0,
                "roughnessFactor" : 0.5
            }
        }
    ],
    "meshes" : [
        {
            "name" : "Cube.012",
            "primitives" : [
                {
                    "attributes" : {
                        "POSITION" : 0,
                        "NORMAL" : 1
                    },
                    "indices" : 2,
                    "material" : 0
                },
                {
                    "attributes" : {
                        "POSITION" : 3,
                        "NORMAL" : 4
                    },
                    "indices" : 5,
                    "material" : 1
                }
            ]
        }
    ],
    "accessors" : [
        {
            "bufferView" : 0,
            "componentType" : 5126,
            "count" : 1542,
            "max" : [
                3.6848480701446533,
                3.6323232650756836,
                1.758423089981079
            ],
            "min" : [
                -3.6848480701446533,
                0.10862851142883301,
                -1.758423089981079
            ],
            "type" : "VEC3"
        },
        {
            "bufferView" : 1,
            "componentType" : 5126,
            "count" : 1542,
            "type" : "VEC3"
        },
        {
            "bufferView" : 2,
            "componentType" : 5123,
            "count" : 2976,
            "type" : "SCALAR"
        },
        {
            "bufferView" : 3,
            "componentType" : 5126,
            "count" : 564,
            "max" : [
                3.71970534324646,
                3.6885035037994385,
                1.7833144664764404
            ],
            "min" : [
                -3.71970534324646,
                0.052448272705078125,
                -1.7833144664764404
            ],
            "type" : "VEC3"
        },
        {
            "bufferView" : 4,
            "componentType" : 5126,
            "count" : 564,
            "type" : "VEC3"
        },
        {
            "bufferView" : 5,
            "componentType" : 5123,
            "count" : 1032,
            "type" : "SCALAR"
        }
    ],
    "bufferViews" : [
        {
            "buffer" : 0,
            "byteLength" : 18504,
            "byteOffset" : 0
        },
        {
            "buffer" : 0,
            "byteLength" : 18504,
            "byteOffset" : 18504
        },
        {
            "buffer" : 0,
            "byteLength" : 5952,
            "byteOffset" : 37008
        },
        {
            "buffer" : 0,
            "byteLength" : 6768,
            "byteOffset" : 42960
        },
        {
            "buffer" : 0,
            "byteLength" : 6768,
            "byteOffset" : 49728
        },
        {
            "buffer" : 0,
            "byteLength" : 2064,
            "byteOffset" : 56496
        }
    ],
    "buffers" : [
        {
            "byteLength" : 58560,
            "uri" : "data:application/octet-stream;base64,"
        }
    ]
}
