{
    "asset" : {
        "generator" : "Khronos glTF Blender I/O v1.7.33",
        "version" : "2.0"
    },
    "scene" : 0,
    "scenes" : [
        {
            "name" : "Scene",
            "nodes" : [
                0
            ]
        }
    ],
    "nodes" : [
        {
            "mesh" : 0,
            "name" : "MetalFence",
            "scale" : [
                0.10399119555950165,
                0.10399119555950165,
                0.10399119555950165
            ]
        }
    ],
    "materials" : [
        {
            "doubleSided" : true,
            "name" : "Grey",
            "pbrMetallicRoughness" : {
                "baseColorFactor" : [
                    0.2746773064136505,
                    0.28744083642959595,
                    0.35153263807296753,
                    1
                ],
                "metallicFactor" : 0,
                "roughnessFactor" : 0.5
            }
        },
        {
            "alphaMode" : "BLEND",
            "doubleSided" : true,
            "name" : "Texture_Fence",
            "pbrMetallicRoughness" : {
                "baseColorTexture" : {
                    "index" : 0
                },
                "metallicFactor" : 0,
                "roughnessFactor" : 0.5
            }
        }
    ],
    "meshes" : [
        {
            "name" : "Cylinder.020",
            "primitives" : [
                {
                    "attributes" : {
                        "POSITION" : 0,
                        "NORMAL" : 1,
                        "TEXCOORD_0" : 2
                    },
                    "indices" : 3,
                    "material" : 0
                },
                {
                    "attributes" : {
                        "POSITION" : 4,
                        "NORMAL" : 5,
                        "TEXCOORD_0" : 6
                    },
                    "indices" : 7,
                    "material" : 1
                }
            ]
        }
    ],
    "textures" : [
        {
            "sampler" : 0,
            "source" : 0
        }
    ],
    "images" : [
        {
            "bufferView" : 8,
            "mimeType" : "image/png",
            "name" : "Fence.png"
        }
    ],
    "accessors" : [
        {
            "bufferView" : 0,
            "componentType" : 5126,
            "count" : 256,
            "max" : [
                17.063674926757812,
                27.638795852661133,
                -0.8754674792289734
            ],
            "min" : [
                -17.063674926757812,
                -0.010950326919555664,
                -1.9784815311431885
            ],
            "type" : "VEC3"
        },
        {
            "bufferView" : 1,
            "componentType" : 5126,
            "count" : 256,
            "type" : "VEC3"
        },
        {
            "bufferView" : 2,
            "componentType" : 5126,
            "count" : 256,
            "type" : "VEC2"
        },
        {
            "bufferView" : 3,
            "componentType" : 5123,
            "count" : 648,
            "type" : "SCALAR"
        },
        {
            "bufferView" : 4,
            "componentType" : 5126,
            "count" : 4,
            "max" : [
                16.477190017700195,
                22.20097541809082,
                -1.3988056182861328
            ],
            "min" : [
                -16.477190017700195,
                1.8844106197357178,
                -1.3988063335418701
            ],
            "type" : "VEC3"
        },
        {
            "bufferView" : 5,
            "componentType" : 5126,
            "count" : 4,
            "type" : "VEC3"
        },
        {
            "bufferView" : 6,
            "componentType" : 5126,
            "count" : 4,
            "type" : "VEC2"
        },
        {
            "bufferView" : 7,
            "componentType" : 5123,
            "count" : 6,
            "type" : "SCALAR"
        }
    ],
    "bufferViews" : [
        {
            "buffer" : 0,
            "byteLength" : 3072,
            "byteOffset" : 0
        },
        {
            "buffer" : 0,
            "byteLength" : 3072,
            "byteOffset" : 3072
        },
        {
            "buffer" : 0,
            "byteLength" : 2048,
            "byteOffset" : 6144
        },
        {
            "buffer" : 0,
            "byteLength" : 1296,
            "byteOffset" : 8192
        },
        {
            "buffer" : 0,
            "byteLength" : 48,
            "byteOffset" : 9488
        },
        {
            "buffer" : 0,
            "byteLength" : 48,
            "byteOffset" : 9536
        },
        {
            "buffer" : 0,
            "byteLength" : 32,
            "byteOffset" : 9584
        },
        {
            "buffer" : 0,
            "byteLength" : 12,
            "byteOffset" : 9616
        },
        {
            "buffer" : 0,
            "byteLength" : 76597,
            "byteOffset" : 9628
        }
    ],
    "samplers" : [
        {
            "magFilter" : 9729,
            "minFilter" : 9987
        }
    ],
    "buffers" : [
        {
            "byteLength" : 86228,
            "uri" : "data:application/octet-stream;base64,"
        }
    ]
}
