{
    "asset" : {
        "generator" : "Khronos glTF Blender I/O v1.7.33",
        "version" : "2.0"
    },
    "scene" : 0,
    "scenes" : [
        {
            "name" : "Scene",
            "nodes" : [
                0
            ]
        }
    ],
    "nodes" : [
        {
            "mesh" : 0,
            "name" : "Tree_2",
            "scale" : [
                0.5184287428855896,
                0.5184287428855896,
                0.5184287428855896
            ]
        }
    ],
    "materials" : [
        {
            "doubleSided" : true,
            "name" : "Tree_Wood",
            "pbrMetallicRoughness" : {
                "baseColorFactor" : [
                    0.14238348603248596,
                    0.08724373579025269,
                    0.044256653636693954,
                    1
                ],
                "metallicFactor" : 0,
                "roughnessFactor" : 0.5
            }
        },
        {
            "doubleSided" : true,
            "name" : "Tree_Green",
            "pbrMetallicRoughness" : {
                "baseColorFactor" : [
                    0.18556469678878784,
                    0.26675671339035034,
                    0.024046624079346657,
                    1
                ],
                "metallicFactor" : 0,
                "roughnessFactor" : 0.5
            }
        }
    ],
    "meshes" : [
        {
            "name" : "Cube.044",
            "primitives" : [
                {
                    "attributes" : {
                        "POSITION" : 0,
                        "NORMAL" : 1
                    },
                    "indices" : 2,
                    "material" : 0
                },
                {
                    "attributes" : {
                        "POSITION" : 3,
                        "NORMAL" : 4
                    },
                    "indices" : 5,
                    "material" : 1
                }
            ]
        }
    ],
    "accessors" : [
        {
            "bufferView" : 0,
            "componentType" : 5126,
            "count" : 56,
            "max" : [
                0.4051002562046051,
                4.7567458152771,
                0.3685237765312195
            ],
            "min" : [
                -0.5052022933959961,
                0.0011609607608988881,
                -0.3685237765312195
            ],
            "type" : "VEC3"
        },
        {
            "bufferView" : 1,
            "componentType" : 5126,
            "count" : 56,
            "type" : "VEC3"
        },
        {
            "bufferView" : 2,
            "componentType" : 5123,
            "count" : 288,
            "type" : "SCALAR"
        },
        {
            "bufferView" : 3,
            "componentType" : 5126,
            "count" : 780,
            "max" : [
                2.006063461303711,
                11.999227523803711,
                2.0074329376220703
            ],
            "min" : [
                -2.0074265003204346,
                4.342809200286865,
                -2.0074331760406494
            ],
            "type" : "VEC3"
        },
        {
            "bufferView" : 4,
            "componentType" : 5126,
            "count" : 780,
            "type" : "VEC3"
        },
        {
            "bufferView" : 5,
            "componentType" : 5123,
            "count" : 4668,
            "type" : "SCALAR"
        }
    ],
    "bufferViews" : [
        {
            "buffer" : 0,
            "byteLength" : 672,
            "byteOffset" : 0
        },
        {
            "buffer" : 0,
            "byteLength" : 672,
            "byteOffset" : 672
        },
        {
            "buffer" : 0,
            "byteLength" : 576,
            "byteOffset" : 1344
        },
        {
            "buffer" : 0,
            "byteLength" : 9360,
            "byteOffset" : 1920
        },
        {
            "buffer" : 0,
            "byteLength" : 9360,
            "byteOffset" : 11280
        },
        {
            "buffer" : 0,
            "byteLength" : 9336,
            "byteOffset" : 20640
        }
    ],
    "buffers" : [
        {
            "byteLength" : 29976,
            "uri" : "data:application/octet-stream;base64,"
        }
    ]
}
