{
	"asset":{
		"generator":"Khronos glTF Blender I/O v3.6.27",
		"version":"2.0"
	},
	"scene":0,
	"scenes":[
		{
			"name":"Scene",
			"nodes":[
				0
			]
		}
	],
	"nodes":[
		{
			"mesh":0,
			"name":"MetalFence",
			"scale":[
				0.10399119555950165,
				0.10399119555950165,
				0.10399119555950165
			]
		}
	],
	"materials":[
		{
			"doubleSided":true,
			"name":"Grey",
			"pbrMetallicRoughness":{
				"baseColorFactor":[
					0.2746773064136505,
					0.28744083642959595,
					0.35153263807296753,
					1
				],
				"metallicFactor":0,
				"roughnessFactor":0.5
			}
		},
		{
			"doubleSided":true,
			"name":"Texture_Fence",
			"pbrMetallicRoughness":{}
		}
	],
	"meshes":[
		{
			"name":"Cylinder.020",
			"primitives":[
				{
					"attributes":{
						"POSITION":0,
						"NORMAL":1,
						"TEXCOORD_0":2
					},
					"indices":3,
					"material":0
				},
				{
					"attributes":{
						"POSITION":4,
						"NORMAL":5,
						"TEXCOORD_0":6
					},
					"indices":7,
					"material":1
				}
			]
		}
	],
	"accessors":[
		{
			"bufferView":0,
			"componentType":5126,
			"count":1024,
			"max":[
				68.25503540039062,
				27.638795852661133,
				-0.8754674792289734
			],
			"min":[
				-68.25436401367188,
				-0.010950326919555664,
				-1.9784815311431885
			],
			"type":"VEC3"
		},
		{
			"bufferView":1,
			"componentType":5126,
			"count":1024,
			"type":"VEC3"
		},
		{
			"bufferView":2,
			"componentType":5126,
			"count":1024,
			"type":"VEC2"
		},
		{
			"bufferView":3,
			"componentType":5123,
			"count":2592,
			"type":"SCALAR"
		},
		{
			"bufferView":4,
			"componentType":5126,
			"count":16,
			"max":[
				67.66854858398438,
				22.20097541809082,
				-1.3988056182861328
			],
			"min":[
				-67.66787719726562,
				1.8844106197357178,
				-1.3988063335418701
			],
			"type":"VEC3"
		},
		{
			"bufferView":5,
			"componentType":5126,
			"count":16,
			"type":"VEC3"
		},
		{
			"bufferView":6,
			"componentType":5126,
			"count":16,
			"type":"VEC2"
		},
		{
			"bufferView":7,
			"componentType":5123,
			"count":24,
			"type":"SCALAR"
		}
	],
	"bufferViews":[
		{
			"buffer":0,
			"byteLength":12288,
			"byteOffset":0,
			"target":34962
		},
		{
			"buffer":0,
			"byteLength":12288,
			"byteOffset":12288,
			"target":34962
		},
		{
			"buffer":0,
			"byteLength":8192,
			"byteOffset":24576,
			"target":34962
		},
		{
			"buffer":0,
			"byteLength":5184,
			"byteOffset":32768,
			"target":34963
		},
		{
			"buffer":0,
			"byteLength":192,
			"byteOffset":37952,
			"target":34962
		},
		{
			"buffer":0,
			"byteLength":192,
			"byteOffset":38144,
			"target":34962
		},
		{
			"buffer":0,
			"byteLength":128,
			"byteOffset":38336,
			"target":34962
		},
		{
			"buffer":0,
			"byteLength":48,
			"byteOffset":38464,
			"target":34963
		}
	],
	"buffers":[
		{
			"byteLength":38512,
			"uri":"data:application/octet-stream;base64,"
		}
	]
}
