{
	"asset":{
		"generator":"Khronos glTF Blender I/O v3.6.27",
		"version":"2.0"
	},
	"scene":0,
	"scenes":[
		{
			"name":"Scene",
			"nodes":[
				0
			]
		}
	],
	"nodes":[
		{
			"mesh":0,
			"name":"MonsterChunk"
		}
	],
	"materials":[
		{
			"doubleSided":true,
			"name":"MushroomKing_Main.001",
			"pbrMetallicRoughness":{
				"baseColorFactor":[
					0.3757452964782715,
					0.26258161664009094,
					0.16706378757953644,
					1
				],
				"metallicFactor":0,
				"roughnessFactor":0.5
			}
		},
		{
			"doubleSided":true,
			"name":"Eye_White.001",
			"pbrMetallicRoughness":{
				"baseColorFactor":[
					0.2753942608833313,
					0.2868460416793823,
					0.3505513072013855,
					1
				],
				"metallicFactor":0,
				"roughnessFactor":0.5
			}
		}
	],
	"meshes":[
		{
			"name":"Cube.001",
			"primitives":[
				{
					"attributes":{
						"POSITION":0,
						"NORMAL":1,
						"TEXCOORD_0":2
					},
					"indices":3,
					"material":0
				},
				{
					"attributes":{
						"POSITION":4,
						"NORMAL":5,
						"TEXCOORD_0":6
					},
					"indices":7,
					"material":1
				}
			]
		}
	],
	"accessors":[
		{
			"bufferView":0,
			"componentType":5126,
			"count":144,
			"max":[
				0.9169305562973022,
				2.204272508621216,
				0.7906225919723511
			],
			"min":[
				-0.9169305562973022,
				-0.06563115119934082,
				-0.9474315047264099
			],
			"type":"VEC3"
		},
		{
			"bufferView":1,
			"componentType":5126,
			"count":144,
			"type":"VEC3"
		},
		{
			"bufferView":2,
			"componentType":5126,
			"count":144,
			"type":"VEC2"
		},
		{
			"bufferView":3,
			"componentType":5123,
			"count":816,
			"type":"SCALAR"
		},
		{
			"bufferView":4,
			"componentType":5126,
			"count":82,
			"max":[
				0.2824525237083435,
				2.909221887588501,
				0.3922603130340576
			],
			"min":[
				-0.42935308814048767,
				-0.8449789881706238,
				-0.6124727725982666
			],
			"type":"VEC3"
		},
		{
			"bufferView":5,
			"componentType":5126,
			"count":82,
			"type":"VEC3"
		},
		{
			"bufferView":6,
			"componentType":5126,
			"count":82,
			"type":"VEC2"
		},
		{
			"bufferView":7,
			"componentType":5123,
			"count":432,
			"type":"SCALAR"
		}
	],
	"bufferViews":[
		{
			"buffer":0,
			"byteLength":1728,
			"byteOffset":0,
			"target":34962
		},
		{
			"buffer":0,
			"byteLength":1728,
			"byteOffset":1728,
			"target":34962
		},
		{
			"buffer":0,
			"byteLength":1152,
			"byteOffset":3456,
			"target":34962
		},
		{
			"buffer":0,
			"byteLength":1632,
			"byteOffset":4608,
			"target":34963
		},
		{
			"buffer":0,
			"byteLength":984,
			"byteOffset":6240,
			"target":34962
		},
		{
			"buffer":0,
			"byteLength":984,
			"byteOffset":7224,
			"target":34962
		},
		{
			"buffer":0,
			"byteLength":656,
			"byteOffset":8208,
			"target":34962
		},
		{
			"buffer":0,
			"byteLength":864,
			"byteOffset":8864,
			"target":34963
		}
	],
	"buffers":[
		{
			"byteLength":9728,
			"uri":"data:application/octet-stream;base64,"
		}
	]
}
