{
	"asset":{
		"generator":"Khronos glTF Blender I/O v3.6.27",
		"version":"2.0"
	},
	"scene":0,
	"scenes":[
		{
			"name":"Scene",
			"nodes":[
				0
			]
		}
	],
	"nodes":[
		{
			"mesh":0,
			"name":"Mushnub_Evolved"
		}
	],
	"materials":[
		{
			"doubleSided":true,
			"name":"MushroomKing_Secondary",
			"pbrMetallicRoughness":{
				"baseColorFactor":[
					0.0229788925498724,
					0.15756268799304962,
					0.25979575514793396,
					1
				],
				"metallicFactor":0,
				"roughnessFactor":0.5
			}
		},
		{
			"doubleSided":true,
			"name":"MushroomKing_Main",
			"pbrMetallicRoughness":{
				"baseColorFactor":[
					0.3757452964782715,
					0.26258161664009094,
					0.16706378757953644,
					1
				],
				"metallicFactor":0,
				"roughnessFactor":0.5
			}
		},
		{
			"doubleSided":true,
			"name":"Spikes",
			"pbrMetallicRoughness":{
				"baseColorFactor":[
					0.60381680727005,
					0.2827824056148529,
					0.022464269772171974,
					1
				],
				"metallicFactor":0,
				"roughnessFactor":0.5
			}
		}
	],
	"meshes":[
		{
			"name":"Cube.035",
			"primitives":[
				{
					"attributes":{
						"POSITION":0,
						"NORMAL":1
					},
					"indices":2,
					"material":0
				},
				{
					"attributes":{
						"POSITION":3,
						"NORMAL":4
					},
					"indices":5,
					"material":1
				},
				{
					"attributes":{
						"POSITION":6,
						"NORMAL":7
					},
					"indices":8,
					"material":2
				}
			]
		}
	],
	"accessors":[
		{
			"bufferView":0,
			"componentType":5126,
			"count":105,
			"max":[
				1.6989381313323975,
				1.7794737815856934,
				1.6989381313323975
			],
			"min":[
				-1.6989381313323975,
				0.17270970344543457,
				-1.6989381313323975
			],
			"type":"VEC3"
		},
		{
			"bufferView":1,
			"componentType":5126,
			"count":105,
			"type":"VEC3"
		},
		{
			"bufferView":2,
			"componentType":5123,
			"count":576,
			"type":"SCALAR"
		},
		{
			"bufferView":3,
			"componentType":5126,
			"count":64,
			"max":[
				1.6355868577957153,
				0.17270994186401367,
				1.6355868577957153
			],
			"min":[
				-1.6355868577957153,
				0.011472940444946289,
				-1.6355868577957153
			],
			"type":"VEC3"
		},
		{
			"bufferView":4,
			"componentType":5126,
			"count":64,
			"type":"VEC3"
		},
		{
			"bufferView":5,
			"componentType":5123,
			"count":288,
			"type":"SCALAR"
		},
		{
			"bufferView":6,
			"componentType":5126,
			"count":575,
			"max":[
				1.703145980834961,
				1.9524316787719727,
				1.8215532302856445
			],
			"min":[
				-1.6146788597106934,
				0.011472702026367188,
				-1.6224901676177979
			],
			"type":"VEC3"
		},
		{
			"bufferView":7,
			"componentType":5126,
			"count":575,
			"type":"VEC3"
		},
		{
			"bufferView":8,
			"componentType":5123,
			"count":2472,
			"type":"SCALAR"
		}
	],
	"bufferViews":[
		{
			"buffer":0,
			"byteLength":1260,
			"byteOffset":0,
			"target":34962
		},
		{
			"buffer":0,
			"byteLength":1260,
			"byteOffset":1260,
			"target":34962
		},
		{
			"buffer":0,
			"byteLength":1152,
			"byteOffset":2520,
			"target":34963
		},
		{
			"buffer":0,
			"byteLength":768,
			"byteOffset":3672,
			"target":34962
		},
		{
			"buffer":0,
			"byteLength":768,
			"byteOffset":4440,
			"target":34962
		},
		{
			"buffer":0,
			"byteLength":576,
			"byteOffset":5208,
			"target":34963
		},
		{
			"buffer":0,
			"byteLength":6900,
			"byteOffset":5784,
			"target":34962
		},
		{
			"buffer":0,
			"byteLength":6900,
			"byteOffset":12684,
			"target":34962
		},
		{
			"buffer":0,
			"byteLength":4944,
			"byteOffset":19584,
			"target":34963
		}
	],
	"buffers":[
		{
			"byteLength":24528,
			"uri":"data:application/octet-stream;base64,"
		}
	]
}
