{
	"asset":{
		"generator":"Khronos glTF Blender I/O v3.6.27",
		"version":"2.0"
	},
	"scene":0,
	"scenes":[
		{
			"name":"Scene",
			"nodes":[
				0
			]
		}
	],
	"nodes":[
		{
			"mesh":0,
			"name":"Mushnub_Blob"
		}
	],
	"materials":[
		{
			"doubleSided":true,
			"name":"MushroomKing_Secondary",
			"pbrMetallicRoughness":{
				"baseColorFactor":[
					0.0229788925498724,
					0.15756268799304962,
					0.25979575514793396,
					1
				],
				"metallicFactor":0,
				"roughnessFactor":0.5
			}
		},
		{
			"doubleSided":true,
			"name":"MushroomKing_Main",
			"pbrMetallicRoughness":{
				"baseColorFactor":[
					0.3757452964782715,
					0.26258161664009094,
					0.16706378757953644,
					1
				],
				"metallicFactor":0,
				"roughnessFactor":0.5
			}
		}
	],
	"meshes":[
		{
			"name":"Cube.034",
			"primitives":[
				{
					"attributes":{
						"POSITION":0,
						"NORMAL":1
					},
					"indices":2,
					"material":0
				},
				{
					"attributes":{
						"POSITION":3,
						"NORMAL":4
					},
					"indices":5,
					"material":1
				}
			]
		}
	],
	"accessors":[
		{
			"bufferView":0,
			"componentType":5126,
			"count":105,
			"max":[
				1.3755918741226196,
				1.4198442697525024,
				1.3755918741226196
			],
			"min":[
				-1.3755918741226196,
				0.1702418327331543,
				-1.3755918741226196
			],
			"type":"VEC3"
		},
		{
			"bufferView":1,
			"componentType":5126,
			"count":105,
			"type":"VEC3"
		},
		{
			"bufferView":2,
			"componentType":5123,
			"count":576,
			"type":"SCALAR"
		},
		{
			"bufferView":3,
			"componentType":5126,
			"count":73,
			"max":[
				1.2720181941986084,
				0.17024195194244385,
				1.2720181941986084
			],
			"min":[
				-1.2720181941986084,
				0.03912925720214844,
				-1.2720181941986084
			],
			"type":"VEC3"
		},
		{
			"bufferView":4,
			"componentType":5126,
			"count":73,
			"type":"VEC3"
		},
		{
			"bufferView":5,
			"componentType":5123,
			"count":384,
			"type":"SCALAR"
		}
	],
	"bufferViews":[
		{
			"buffer":0,
			"byteLength":1260,
			"byteOffset":0,
			"target":34962
		},
		{
			"buffer":0,
			"byteLength":1260,
			"byteOffset":1260,
			"target":34962
		},
		{
			"buffer":0,
			"byteLength":1152,
			"byteOffset":2520,
			"target":34963
		},
		{
			"buffer":0,
			"byteLength":876,
			"byteOffset":3672,
			"target":34962
		},
		{
			"buffer":0,
			"byteLength":876,
			"byteOffset":4548,
			"target":34962
		},
		{
			"buffer":0,
			"byteLength":768,
			"byteOffset":5424,
			"target":34963
		}
	],
	"buffers":[
		{
			"byteLength":6192,
			"uri":"data:application/octet-stream;base64,"
		}
	]
}
